<svg width="16" height="16" viewBox="0 0 16 16" fill="none" xmlns="http://www.w3.org/2000/svg">
<path d="M5.53203 2C2.9531 2 1.33203 4.39076 1.33203 6.50667C1.33203 7.6219 1.76922 8.6472 2.3697 9.53133C2.97081 10.4164 3.76059 11.1976 4.53219 11.8399C5.30638 12.4843 6.08098 13.0043 6.66859 13.3633C6.96285 13.5432 7.21312 13.6844 7.39659 13.7822C7.4878 13.8308 7.56574 13.8705 7.6263 13.8994C7.65569 13.9135 7.68694 13.9278 7.71643 13.9401C7.73034 13.9459 7.75218 13.9547 7.77754 13.9632C7.78998 13.9673 7.81108 13.9741 7.83724 13.9805C7.85388 13.9845 7.91733 14 7.9987 14C8.08007 14 8.14304 13.9846 8.15969 13.9806C8.18584 13.9742 8.20742 13.9673 8.21986 13.9632C8.24521 13.9547 8.26705 13.9459 8.28097 13.9401C8.31046 13.9278 8.34171 13.9135 8.3711 13.8994C8.43166 13.8705 8.5096 13.8308 8.6008 13.7822C8.78427 13.6844 9.03454 13.5432 9.32881 13.3633C9.91642 13.0043 10.691 12.4843 11.4652 11.8399C12.2368 11.1976 13.0266 10.4164 13.6277 9.53133C14.2282 8.6472 14.6654 7.6219 14.6654 6.50667C14.6654 4.39076 13.0443 2 10.4654 2C9.37816 2 8.56706 2.4083 7.9987 2.87687C7.43034 2.4083 6.61924 2 5.53203 2Z" fill="#FF0000"/>
</svg>
