<svg width="16" height="16" viewBox="0 0 16 16" fill="none" xmlns="http://www.w3.org/2000/svg">
<path d="M8.00154 1.33301C6.16059 1.33301 4.66821 2.82539 4.66821 4.66634C4.66821 6.50729 6.16059 7.99967 8.00154 7.99967C9.84249 7.99967 11.3349 6.50729 11.3349 4.66634C11.3349 2.82539 9.84249 1.33301 8.00154 1.33301Z" fill="white"/>
<path d="M8.00154 8.66634C10.3916 8.66634 12.4552 10.0638 13.42 12.0861C13.6315 12.5296 13.7373 12.7513 13.6546 13.2646C13.5987 13.6121 13.2463 14.1706 12.9568 14.3707C12.5291 14.6663 12.131 14.6663 11.3349 14.6663H4.66821C3.87207 14.6663 3.474 14.6663 3.04629 14.3707C2.75675 14.1706 2.4044 13.6121 2.34845 13.2646C2.26579 12.7513 2.37157 12.5296 2.58312 12.0861C3.54787 10.0638 5.61151 8.66634 8.00154 8.66634Z" fill="white"/>
</svg>
