<svg width="28" height="28" viewBox="0 0 28 28" fill="none" xmlns="http://www.w3.org/2000/svg">
<path fill-rule="evenodd" clip-rule="evenodd" d="M11.9188 5.58456L19.3366 9.75707C20.24 10.2652 20.9881 10.686 21.5447 11.07C22.105 11.4565 22.6391 11.9141 22.931 12.5618C23.343 13.4761 23.343 14.5232 22.931 15.4376C22.6391 16.0852 22.105 16.5429 21.5447 16.9294C20.9881 17.3134 20.2399 17.7342 19.3366 18.2423L11.9188 22.4148C11.0465 22.9055 10.3219 23.3131 9.72187 23.5817C9.11532 23.8533 8.46404 24.066 7.77287 23.9879C6.79265 23.8771 5.9047 23.3578 5.32756 22.5577C4.9206 21.9936 4.78672 21.3217 4.72602 20.6599C4.66598 20.0053 4.666 19.1739 4.66602 18.173V9.82635C4.666 8.82547 4.66598 7.99405 4.72602 7.33943C4.78672 6.67765 4.9206 6.00571 5.32756 5.4416C5.9047 4.64159 6.79265 4.12228 7.77287 4.01147C8.46404 3.93334 9.11532 4.14608 9.72187 4.41762C10.3219 4.68622 11.0465 5.09385 11.9188 5.58456Z" fill="white"/>
</svg>
