<svg width="25" height="25" viewBox="0 0 25 25" fill="none" xmlns="http://www.w3.org/2000/svg">
<path d="M6.06953 12.3993C4.82923 11.9169 4.20908 11.6757 4.02802 11.3282C3.87107 11.027 3.87086 10.6681 4.02746 10.3667C4.2081 10.019 4.82797 9.77708 6.06771 9.29328L18.3338 4.5065C19.453 4.06976 20.0125 3.8514 20.3701 3.97085C20.6806 4.07458 20.9243 4.31826 21.028 4.62878C21.1475 4.98634 20.9291 5.5459 20.4924 6.66503L15.7056 18.9312C15.2218 20.1709 14.9799 20.7908 14.6322 20.9714C14.3307 21.128 13.9719 21.1278 13.6706 20.9709C13.3231 20.7898 13.082 20.1696 12.5996 18.9293L11.037 14.9111C10.9391 14.6594 10.8901 14.5335 10.8145 14.4275C10.7475 14.3335 10.6653 14.2514 10.5714 14.1844C10.4654 14.1087 10.3395 14.0598 10.0877 13.9619L6.06953 12.3993Z" stroke="white" stroke-width="1.2" stroke-linecap="round" stroke-linejoin="round"/>
</svg>
