<svg width="12" height="12" viewBox="0 0 12 12" fill="none" xmlns="http://www.w3.org/2000/svg">
<path fill-rule="evenodd" clip-rule="evenodd" d="M2 5.1C2 2.849 3.77768 1 6 1C8.22232 1 10 2.849 10 5.1C10 6.24826 9.49297 7.25342 8.80649 8.17026C8.23354 8.93548 7.50013 9.68328 6.77056 10.4272C6.6327 10.5677 6.49498 10.7082 6.3585 10.8485C6.26436 10.9454 6.13505 11 6 11C5.86495 11 5.73564 10.9454 5.6415 10.8485C5.50502 10.7082 5.3673 10.5677 5.22944 10.4272C4.49987 9.68328 3.76646 8.93548 3.19351 8.17026C2.50703 7.25342 2 6.24826 2 5.1ZM6 6.5C6.82843 6.5 7.5 5.82843 7.5 5C7.5 4.17157 6.82843 3.5 6 3.5C5.17157 3.5 4.5 4.17157 4.5 5C4.5 5.82843 5.17157 6.5 6 6.5Z" fill="#FF0000"/>
</svg>
